<svg xmlns="http://www.w3.org/2000/svg" version="1.2" baseProfile="tiny" viewBox="75 50 390 444"><path d="M342.79 422.59q-12.49 3.49-25.05 4.83-.35.04-.24-.6 43.96-29.84 78.96-69.52c17.36-19.69 26.5-40.39 28.16-66.78q.59-9.43.6-17.51.12-55.76 0-190.36 0-.44-.43-.55c-103-25.88-207.66-25.99-309.51-.14a.65.64 83.2 0 0-.49.63q-.17 64.38.1 128.84c.1 23.12-.38 46.2.13 69.32.62 28.47 8.25 52.93 27.53 74.21q36.2 39.95 84 72.67-12.05-.16-23.8-3.16-35.62-26.36-65.74-58.86c-18.41-19.87-29.54-42.53-32.51-69.63q-.71-6.46-.72-19.97-.07-101.11-.01-202.21 0-.52.5-.66c109.57-29.4 221.47-28.32 331.18-.16a1.05 1.05 0 0 1 .79 1.02q.02 100.03 0 200.5-.01 14.56-.46 19.98-3.29 39.38-30.14 69.66-29.1 32.83-62.85 58.45z"/><path fill="#a9d18e" d="M317.5 426.82c-1.55.73-3.05 1.36-4.81 1.55q-41.24 4.36-82.51.26-.85-.08-1.8-.47-1.15-.48-1.83-.53-47.8-32.72-84-72.67c-19.28-21.28-26.91-45.74-27.53-74.21-.51-23.12-.03-46.2-.13-69.32q-.27-64.46-.1-128.84a.65.64 83.2 0 1 .49-.63c101.85-25.85 206.51-25.74 309.51.14q.43.11.43.55.12 134.6 0 190.36-.01 8.08-.6 17.51c-1.66 26.39-10.8 47.09-28.16 66.78q-35 39.68-78.96 69.52zm33.11-205.92c4.26-10.72 4.42-21.96-7.55-27.66a.39.38 2.7 0 0-.53.48c4.91 13.18-1.56 19.19-8.78 29.37-1.29 1.83-2.4 2.52-4.5 2.92q-10.49 1.99-20.9 4.51-.43.11-.51-.33-1.21-6.84-5.56-12.25a1.11 1.09-56.2 0 1-.19-1.01c2.08-7.03-3.56-15.39-7.48-20.31q-1.34-1.69-1.79-4.04-.11-.58.48-.63 5.32-.4 10.66-.19c3.16.11 5.24-1.39 8.15-2.22 5.5-1.56 9.87-3.91 14.78-6.27.76-.36 1.48-1.16 1.61-1.94a.57.57 0 0 0-.75-.64q-7.5 2.62-15.55 2.62a.68.68 0 0 1-.29-1.29c6.39-3 9.61-6.53 14.42-11.1q.61-.58.7-1.34a.4.4 0 0 0-.64-.36q-5.93 4.55-12.94 6.94c-1.33.46-1.6 1.23-2.59 1.99a1.01 1.01 0 0 1-1.57-1.12q.94-2.79 3.65-3.25.47-.08.82-.38 4.5-3.82 7.14-9.06a1.02.99-65.8 0 0-.5-1.39q-.28-.11-.73.23c-6.02 4.61-14.16 8.43-21.81 8.78-2.32.11-4.7 1.37-6.63 1.6q-8.92 1.06-17.82 2.66a.84.84 0 0 1-.77-.27l-4.06-4.66a.82.82 0 0 0-1.38.23c-1.58 4.04-.17 7.58.11 11.72a1.71 1.65-66 0 0 .33.91c1.7 2.34 1.98 5.31 2.84 7.41q3.85 9.49 5.02 12.18c1.56 3.59.22 5.4-3.4 6.25q-7.83 1.84-15.28 4.82-.49.2-.32-.3c3.54-10.55 3.41-21.32-8.48-26.28a.4.4 0 0 0-.5.56c2.31 4.22 1.56 8.15 1.89 12.67a.25.25 0 0 1-.49.09c-7.34-27.09-18.76-50.89-50.7-52.93q-.98-.06-.1-.49c14.71-7.15 19.79-23.47 9.86-37.11-6.93-9.51-14.58-17.53-8.99-30.32a.41.41 0 0 0-.57-.53c-18.56 9.61-8.16 25.27-2.51 37.62 3.74 8.17-3.32 14.46-11.05 14.78a1.18 1.18 0 0 0-.87.46q-5.33 6.96-.71 14.57a.69.69 0 0 1-.58 1.05l-14.2.19q-.63.01-.23-.46 4.05-4.78 2.53-11.15c-1.39-5.84-7.29-4.53-11.57-7.39a1.56 1.56 0 0 1-.53-1.99l9.51-19.02a.9.89-56 0 0-.2-1.06l-4.36-3.9q-.31-.28-.26-.69c.55-4.4 1.65-9.76-.16-13.8q-2.73-6.08-9.2-9.07-.7-.32-.43.4c3.28 8.78 1.56 15.27-3.97 22.77-5.95 8.08-10.7 14.11-10.36 24.07.11 3.19 1.54 6.26 2.56 9.36q.66 2 1.5 6.98c2.53 14.99 14.93 23.2 29.77 21.35 21.83-2.73 41.46-.88 48.34 23.26q2.93 10.31 2.9 19.02c-.03 6.19.97 11.13 1.83 16.82.76 5.12.63 9.98.56 15.09a.95.94-16.6 0 1-.43.79l-10.78 6.96q-.52.33-.84-.19-2.56-4.06-3.64-8.74a2.01 1.98 49.3 0 1 .08-1.17q4.88-12.3-2.09-23.33-.26-.42-.17-.91.82-4.36.16-8.7a1.32 1.32 0 0 0-2.46-.46l-1.87 3.32q-.26.46-.57.04c-5.84-7.96-9.6-14.35-5.06-24.31a.4.39-.2 0 0-.53-.52c-13.46 6.04-12.19 18.25-6.61 29.52q.26.53-.33.53-6.56-.02-13.13 0c-4.95.02-9.9-4.18-14.1-6.55q-.47-.26-.52.27c-.29 3.03 4.15 6.4 6.17 8.39a1.33 1.32 76.3 0 0 .57.35q1.39.44 2.48 1.43a.73.73 0 0 1-.71 1.24q-6.09-1.94-11.64-5.06-.47-.27-.22-.75c5.55-10.65 6.24-23.42-6.47-29.38a.36.36 0 0 0-.49.46c7.18 18.01-9.51 24.03-13.44 38.64-4.43 16.46 9.18 29.64 24.93 29.95q1.3.03 2.75-1.49c3.4-3.56 4.31-8.01 2.64-12.43-1.52-3.98-4.62-3.17-7.73-4.33-3.95-1.47-7.42-4.93-6.9-9.51q.06-.53.53-.28c6.52 3.45 14.47 8.31 21.5 9.64q4.73.89 9.58.7a.08.07-67.7 0 1 .05.13l-.23.23q-.07.08-.18.08l-2.17.03a1.03.99 21.4 0 0-.68.28c-5.84 5.59-1.97 20.17 6.53 16.54a1.86 1.86 0 0 1 2.57 1.39c.97 5.58 3.21 12.79 7.4 16.75 5.77 5.46 15.04 3.05 22 2.7q7.82-.39 16.35-1.81a1.22 1.22 0 0 1 1.26.6c7.12 12.65 16.88 19.1 30.49 24.16a1.83 1.82-64.1 0 1 .92 2.66c-3.83 6.34-8.98 14.1-1.74 20.56 5.25 4.69 12.34 11.01 13.78 18.65a.57.57 0 0 1-.48.67l-3.65.46a1.14 1.13 21.3 0 0-.6.26c-5.88 4.93-3.5 18.19 5.15 17.2q5.4-.62 10.11-2.68.96-.42 1.17.61l1.42 6.95a.87.87 0 0 0 1.73-.21l-.34-9.08q-.03-.57.39-.97l3.12-2.99q.6-.57.94.18l4.84 10.5q.06.15.22.1.11-.04.25-.08.29-.09.2-.37l-4.04-12.52q-.17-.51.14-.95 4.24-6.22 3.67-13.77-.05-.56.52-.56h2.28a.48.48 0 0 0 .36-.79q-1.02-1.19-2.64-1.22a.69.68 83.3 0 1-.65-.52c-2.22-9.03-8.04-14.83-12.98-21.97a.75.74 55.6 0 1 .19-1.04c5.4-3.68 11.12-9.68 15.43.14 3.91 8.93 6.46 18.88 15.72 24.35 3 1.77 1.72 4.75 2.39 7.22q4.89 18 24.15 19.99c5.66.58 7.86-7.51 7.16-11.76a.46.46 0 0 1 .65-.49q4.5 2.1 9.23.45.6-.21.52.42c-.62 5.22 2.12 11.79 8.29 11.05q15.23-1.82 21.3-14.63c11.41-24.09-22.24-32.52-11.84-54.75a.37.37 0 0 0-.5-.49q-10.29 4.93-10.66 15.3c-.33 9.29 5.97 15.52 8.43 23.73 1.82 6.04-1.82 10.78-7.44 12.66a.29.29 0 0 1-.33-.44c6.74-9.97.19-16.93-7.01-24.51q-3.17-3.34-8-12.76c-3.15-6.15-10.29-14.62-17.94-17.49-4.78-1.8-11.81-.97-16.96-.94a1.55 1.52-26.6 0 1-.9-.29q-5.64-4.11-9.64-9.85a1.06 1.05-54.5 0 1-.14-.87l6.63-23.56q.15-.53.7-.65l3.94-.82q.56-.11.75.42 5.86 16.62 23.74 18.27c7.58.7 11.11-16.01 2.24-17.92-2.52-.54-6.29-.85-5.07-4.72 1.02-3.19 10.28-1.53 12.74-1a.52.52 0 0 0 .62-.63c-.59-2.63-6.8-3.75-9.09-4.19a.65.64 37.3 0 1-.17-1.21c4.51-2.22 9.38-2.47 14.24-3.74q1.68-.44 1.19-2.03a.89.88-6.4 0 0-.77-.61q-7.09-.56-14.12.62a.4.4 0 0 1-.3-.72q7.17-5.26 15.41-8.63a.46.46 0 0 0-.18-.88c-5.98.08-12.34 2.77-18.42 3.7q-.7.11-.44-.55zm-90.56-88.37c-12.69-2.16-11.69-12.37-6.33-20.89 6.25-9.94 8.28-25.63-5.58-31.42q-.79-.32-.47.46c5.72 14.13-2.78 20.24-9.88 31.12-11.49 17.6.27 36.7 20.32 38.34 8.07.66 10.97-16.07 1.94-17.61zm33.2-52.29c-11.59 4.76-12.34 15.78-8.37 25.98 1.87 4.8 6.02 9.33 6.86 15.01.99 6.74-6.48 11.15-12.18 11.46q-.48.03-.81.39c-4.89 5.46-3.79 17.87 5.65 16.88 16.57-1.73 27.72-16.08 22.02-32.44-2.08-5.95-8.19-12.39-11.35-17.34q-5.43-8.51-1.56-19.69a.2.2 0 0 0-.26-.25zm49.29 5.59c9.67 22.03-22.92 30.51-12.16 54.41q6.42 14.25 23.97 14.98a1.47 1.44-60.7 0 0 .93-.27q6.07-4.26 4.49-12.17-.89-4.43-4.76-5.24c-18.12-3.81-7.87-17.22-3.59-27.09 1.48-3.43 1.55-6.93 1.75-10.6.36-6.53-4.52-11.58-9.95-14.64a.49.48-87.2 0 0-.68.62zm44.8-.66c-9.57 5.15-12.59 13.47-8.97 23.85 1.67 4.8 5.66 10.42 7.06 14.79 2.29 7.17-3.61 13.62-10.65 13.61-6.06 0-6.94 18.62 3.68 17.6 19.87-1.9 30.84-22.56 18.3-39.29-7.61-10.14-14.2-18.17-8.77-29.95a.47.47 0 0 0-.65-.61zm-13.15 176.88q1.26 1.14 2.1 1.12c18.29-.46 31.36-17.02 23.29-34.77-5.7-12.55-18.88-18.99-11.59-34.58a.52.51 87.7 0 0-.72-.67c-16.58 9.51-9.91 22.79-3.15 35.95 4.48 8.73-.84 16.09-10.15 16.46a1.18 1.16 19 0 0-.84.4c-4.37 5.05-3.99 11.51 1.06 16.09zM143.9 342.68c5.11 6.79 12.38 10.25 20.86 10.47 2.17.06 2.87-1.17 4.28-2.94 3.14-3.95 2.68-10.57-.7-14.02a1.48 1.45-19.5 0 0-.96-.45c-5.39-.44-11.13-3.43-11.75-9.14-.53-4.83 2.51-9.66 5.1-14.17q3.05-5.33 3.5-12.46c.49-7.89-3.38-13.61-10.37-16.77a.26.26 0 0 0-.35.33q4.86 12.42-3.39 22.57c-9.05 11.13-15.91 23.72-6.22 36.58zm40.55 8.62q1.69 1.92 2.87 1.88c16.83-.63 30.19-14.97 24.47-31.98-4.6-13.71-20.24-20.16-12.85-37.49a.4.4 0 0 0-.55-.52c-8.37 4.31-12.06 11.52-9.91 20.59 1.66 7.02 6.1 12.67 7.95 18.02 2.7 7.81-4.29 13.52-11.55 13.79q-.49.02-.79.41-6.13 7.93.36 15.3zm72.49 3.68c6.99.79 9.6-6.3 8.29-12.22-.67-3.06-1.76-4.57-5.06-5.21-17.25-3.36-8.49-16.56-3.92-25.96 2.17-4.48 3.17-12.74 1.25-17.21q-2.69-6.25-9.36-9.14a.39.39 0 0 0-.51.51c5.98 14.22-3.23 20.46-10.13 31.49-10.67 17.04.16 35.57 19.44 37.74zm1.12 72.33q1.83.3 2.7-.35 7.22-5.46 3.53-14.1c-2.4-5.61-12.78-1.86-14.33-11.64-.84-5.28 2.97-10.53 5.72-15.55 2.14-3.89 3.27-10.59 2.77-15.23-.57-5.32-5.85-10.29-10.27-12.16q-.72-.3-.44.42c6.3 16.17-5.74 21.84-11.41 33.12q-7.55 14.99 2.97 26.88c4.98 5.63 11.21 7.37 18.76 8.61zm20.78-1.92q1.72 1.96 4.38 1.74c12.32-.99 24.19-9.29 24.7-22.28.27-6.9-1.46-11.16-5.74-17.18-6.73-9.45-14.15-16.56-8.49-28.79a.42.42 0 0 0-.55-.56c-12.59 5.56-13.03 19.15-6.32 29.61 2.85 4.45 6.64 11.17 4.09 15.51q-3.64 6.21-11.49 6.45a1.01.99 18.4 0 0-.76.37q-6.27 7.8.18 15.13z"/><path fill="#151515" d="M351.05 221.45c6.08-.93 12.44-3.62 18.42-3.7a.46.46 0 0 1 .18.88q-8.24 3.37-15.41 8.63a.4.4 0 0 0 .3.72q7.03-1.18 14.12-.62a.89.88-6.4 0 1 .77.61q.49 1.59-1.19 2.03c-4.86 1.27-9.73 1.52-14.24 3.74a.65.64 37.3 0 0 .17 1.21c2.29.44 8.5 1.56 9.09 4.19a.52.52 0 0 1-.62.63c-2.46-.53-11.72-2.19-12.74 1-1.22 3.87 2.55 4.18 5.07 4.72 8.87 1.91 5.34 18.62-2.24 17.92q-17.88-1.65-23.74-18.27-.19-.53-.75-.42l-3.94.82q-.55.12-.7.65l-6.63 23.56a1.06 1.05-54.5 0 0 .14.87q4 5.74 9.64 9.85a1.55 1.52-26.6 0 0 .9.29c5.15-.03 12.18-.86 16.96.94 7.65 2.87 14.79 11.34 17.94 17.49q4.83 9.42 8 12.76c7.2 7.58 13.75 14.54 7.01 24.51a.29.29 0 0 0 .33.44c5.62-1.88 9.26-6.62 7.44-12.66-2.46-8.21-8.76-14.44-8.43-23.73q.37-10.37 10.66-15.3a.37.37 0 0 1 .5.49c-10.4 22.23 23.25 30.66 11.84 54.75q-6.07 12.81-21.3 14.63c-6.17.74-8.91-5.83-8.29-11.05q.08-.63-.52-.42-4.73 1.65-9.23-.45a.46.46 0 0 0-.65.49c.7 4.25-1.5 12.34-7.16 11.76q-19.26-1.99-24.15-19.99c-.67-2.47.61-5.45-2.39-7.22-9.26-5.47-11.81-15.42-15.72-24.35-4.31-9.82-10.03-3.82-15.43-.14a.75.74 55.6 0 0-.19 1.04c4.94 7.14 10.76 12.94 12.98 21.97a.69.68 83.3 0 0 .65.52q1.62.03 2.64 1.22a.48.48 0 0 1-.36.79h-2.28q-.57 0-.52.56.57 7.55-3.67 13.77-.31.44-.14.95l4.04 12.52q.09.28-.2.37-.14.04-.25.08-.16.05-.22-.1l-4.84-10.5q-.34-.75-.94-.18l-3.12 2.99q-.42.4-.39.97l.34 9.08a.87.87 0 0 1-1.73.21l-1.42-6.95q-.21-1.03-1.17-.61-4.71 2.06-10.11 2.68c-8.65.99-11.03-12.27-5.15-17.2a1.14 1.13 21.3 0 1 .6-.26l3.65-.46a.57.57 0 0 0 .48-.67c-1.44-7.64-8.53-13.96-13.78-18.65-7.24-6.46-2.09-14.22 1.74-20.56a1.83 1.82-64.1 0 0-.92-2.66c-13.61-5.06-23.37-11.51-30.49-24.16a1.22 1.22 0 0 0-1.26-.6q-8.53 1.42-16.35 1.81c-6.96.35-16.23 2.76-22-2.7-4.19-3.96-6.43-11.17-7.4-16.75a1.86 1.86 0 0 0-2.57-1.39c-8.5 3.63-12.37-10.95-6.53-16.54a1.03.99 21.4 0 1 .68-.28l2.17-.03q.11 0 .18-.08l.23-.23a.08.07-67.7 0 0-.05-.13q-4.85.19-9.58-.7c-7.03-1.33-14.98-6.19-21.5-9.64q-.47-.25-.53.28c-.52 4.58 2.95 8.04 6.9 9.51 3.11 1.16 6.21.35 7.73 4.33 1.67 4.42.76 8.87-2.64 12.43q-1.45 1.52-2.75 1.49c-15.75-.31-29.36-13.49-24.93-29.95 3.93-14.61 20.62-20.63 13.44-38.64a.36.36 0 0 1 .49-.46c12.71 5.96 12.02 18.73 6.47 29.38q-.25.48.22.75 5.55 3.12 11.64 5.06a.73.73 0 0 0 .71-1.24q-1.09-.99-2.48-1.43a1.33 1.32 76.3 0 1-.57-.35c-2.02-1.99-6.46-5.36-6.17-8.39q.05-.53.52-.27c4.2 2.37 9.15 6.57 14.1 6.55q6.57-.02 13.13 0 .59 0 .33-.53c-5.58-11.27-6.85-23.48 6.61-29.52a.4.39-.2 0 1 .53.52c-4.54 9.96-.78 16.35 5.06 24.31q.31.42.57-.04l1.87-3.32a1.32 1.32 0 0 1 2.46.46q.66 4.34-.16 8.7-.09.49.17.91 6.97 11.03 2.09 23.33a2.01 1.98 49.3 0 0-.08 1.17q1.08 4.68 3.64 8.74.32.52.84.19l10.78-6.96a.95.94-16.6 0 0 .43-.79c.07-5.11.2-9.97-.56-15.09-.86-5.69-1.86-10.63-1.83-16.82q.03-8.71-2.9-19.02c-6.88-24.14-26.51-25.99-48.34-23.26-14.84 1.85-27.24-6.36-29.77-21.35q-.84-4.98-1.5-6.98c-1.02-3.1-2.45-6.17-2.56-9.36-.34-9.96 4.41-15.99 10.36-24.07 5.53-7.5 7.25-13.99 3.97-22.77q-.27-.72.43-.4 6.47 2.99 9.2 9.07c1.81 4.04.71 9.4.16 13.8q-.05.41.26.69l4.36 3.9a.9.89-56 0 1 .2 1.06l-9.51 19.02a1.56 1.56 0 0 0 .53 1.99c4.28 2.86 10.18 1.55 11.57 7.39q1.52 6.37-2.53 11.15-.4.47.23.46l14.2-.19a.69.69 0 0 0 .58-1.05q-4.62-7.61.71-14.57a1.18 1.18 0 0 1 .87-.46c7.73-.32 14.79-6.61 11.05-14.78-5.65-12.35-16.05-28.01 2.51-37.62a.41.41 0 0 1 .57.53c-5.59 12.79 2.06 20.81 8.99 30.32 9.93 13.64 4.85 29.96-9.86 37.11q-.88.43.1.49c31.94 2.04 43.36 25.84 50.7 52.93a.25.25 0 0 0 .49-.09c-.33-4.52.42-8.45-1.89-12.67a.4.4 0 0 1 .5-.56c11.89 4.96 12.02 15.73 8.48 26.28q-.17.5.32.3 7.45-2.98 15.28-4.82c3.62-.85 4.96-2.66 3.4-6.25q-1.17-2.69-5.02-12.18c-.86-2.1-1.14-5.07-2.84-7.41a1.71 1.65-66 0 1-.33-.91c-.28-4.14-1.69-7.68-.11-11.72a.82.82 0 0 1 1.38-.23l4.06 4.66a.84.84 0 0 0 .77.27q8.9-1.6 17.82-2.66c1.93-.23 4.31-1.49 6.63-1.6 7.65-.35 15.79-4.17 21.81-8.78q.45-.34.73-.23a1.02.99-65.8 0 1 .5 1.39q-2.64 5.24-7.14 9.06-.35.3-.82.38-2.71.46-3.65 3.25a1.01 1.01 0 0 0 1.57 1.12c.99-.76 1.26-1.53 2.59-1.99q7.01-2.39 12.94-6.94a.4.4 0 0 1 .64.36q-.09.76-.7 1.34c-4.81 4.57-8.03 8.1-14.42 11.1a.68.68 0 0 0 .29 1.29q8.05 0 15.55-2.62a.57.57 0 0 1 .75.64c-.13.78-.85 1.58-1.61 1.94-4.91 2.36-9.28 4.71-14.78 6.27-2.91.83-4.99 2.33-8.15 2.22q-5.34-.21-10.66.19-.59.05-.48.63.45 2.35 1.79 4.04c3.92 4.92 9.56 13.28 7.48 20.31a1.11 1.09-56.2 0 0 .19 1.01q4.35 5.41 5.56 12.25.08.44.51.33 10.41-2.52 20.9-4.51c2.1-.4 3.21-1.09 4.5-2.92 7.22-10.18 13.69-16.19 8.78-29.37a.39.38 2.7 0 1 .53-.48c11.97 5.7 11.81 16.94 7.55 27.66q-.26.66.44.55zm-163.92-73.7c15.82.01 28.6-13.67 22.53-29.63-4.71-12.39-18.61-18.8-13.15-34.41q.21-.61-.32-.23c-10.64 7.52-6.4 18.42-1.57 27.73q3.45 6.63 3.86 8.57c1.97 9.13-4.99 12.95-12.98 15.15a1.4 1.38-83.7 0 0-.86.7q-3.33 6.42 1.54 11.7a1.29 1.27-20.9 0 0 .95.42zm-30-63.64q-.39-.32-.68-.44a.31.31 0 0 0-.42.39c7.04 20.13-21.74 27.98-13.33 49.58q.34.87.45-.06c1.11-9.76 5.03-15.04 12.06-21.28 8.07-7.16 11.17-20.58 1.92-28.19zm140.69 168.96c-6.55-9.03-13.58-13.52-23.54-18.96q-.6-.33-.04-.71c6.63-4.56 24.82-15.15 21.23-22.61q-2.6-5.39-8.2-13.83-.84-1.25-1.43-3.95c-2.09-9.4 13.01-7.85 17.2-7.78q.78.01.29-.6l-4.47-5.55q-.35-.43-.9-.3-9.24 2.16-18.7 3.1c-13.18 1.3 16.08 27.52-3.66 33.75q-11.87 3.74-23.8 7.48-.46.14-.77-.24-3.83-4.7-4.84-8.1c-7.6-25.4-13.29-51.28-38.42-57.85-10.46-2.74-20.51-2.42-30.2-1.57-10.93.96-23.76.58-26.56-12.86q-1.93-9.25 2.11-17.66a.28.21 79.4 0 0-.37-.33c-5.41 9.98-4.34 28.05 7.48 32.86q3 1.22 8.67 1.14c7.79-.11 16.03-.82 23.47-.34 27.75 1.81 38.53 23.69 38.59 48.56q.01 4.36.63 8.02 1.81 10.58 2.02 21.33.03 1.5 1 4.11.18.47-.15.85c-5.57 6.34-13.55 10.31-20.01 15.87q-.4.35-.77-.02c-8.69-8.64-12.32-24.55-12.37-36.5q-.01-1.01-1.02-1.07-8.3-.5-16.97-.12c-3.68.17-5.3 3.15-7.21 5.62a.59.59 0 0 0 .34.93c6.53 1.48 12.9.19 19.36 2.63q.48.18.38.68c-1.04 5.33 1.59 11.46 2.49 17.38 1.04 6.75 3.21 19.6 12.07 19.3q16.99-.55 31.91-3.47.51-.1.77.35 1.83 3.16 3.69 6.3c7.58 12.78 21.21 19.02 35.16 22.14q.15.04.08.17l-9.81 18.53a1.57 1.56-57.8 0 0 .45 1.99c7.95 5.94 13.2 15.55 18.42 24.19a.89.89 0 0 0 1.41.15c.96-1.02.87-3.35.27-4.73q-4.91-11.31-11.32-21.94-.27-.45-.02-.91c2.99-5.45 16.47-17.73 22.69-16.97 17.3 2.11 11.66 25.26 27.61 32.4 5.52 2.48 12.27 2.9 17.64 5.62 4.41 2.24 11.08 7.57 15.29 7.99 5.67.56 11.41-9.09 7.02-13.8q-8.04-8.61-13.88-18.77c-3.88-6.73-7.84-13.83-14.78-16.63-3.53-1.42-7.68-.73-11.52-.66-10.11.2-17.01-8.09-21.97-15.89q-.3-.46-.15-.98c2.11-7.83 5.52-17.68 7.39-28.61q.09-.51.57-.74 10.09-4.71 21.14-5.12c4.74-.18 9.26-1.16 8.62-6.76a.95.95 0 0 0-1.16-.82l-34.84 8q-.42.1-.65.47c-3.21 5.05-6.82 13.45-12.24 16.02q-.44.21-.72-.18zM168.08 136.58c-1.35-2.22-7.4-3.67-10.11-5.2a.44.44 0 0 0-.66.35c-.45 6.17-1.25 15.62 7.7 16.19a1.36 1.36 0 0 0 1.01-.35c2.73-2.45 4.13-7.62 2.06-10.99zm28.05 48.82c-9.64 7.07-7.19 17.77-1.61 26.45a.85.85 0 0 0 .72.4h5.52a2.33 2.33 0 0 0 1.79-3.82c-5.58-6.72-9.46-13.74-6.02-22.72q.32-.83-.4-.31zm-29.57 50.79c-6.96-1.51-14.06-5.92-12.94-14.06q.07-.51-.25-.92l-3.11-3.9a.69.69 0 0 1 .89-1.03l2.96 1.76q.53.31.82-.23l2.13-3.96q.22-.42-.05-.82l-.46-.67a.54.54 0 0 1 .26-.81c3.56-1.29 5.35-8.27 5.94-12.04q1.34-8.53-6.35-13.74-.5-.35-.31.23c3.88 11.59-3.74 19-9.95 27.41-12.17 16.48-.3 34.87 18.68 35.66q.5.02.89-.29 4.44-3.59 3.04-9.54-.64-2.72-2.19-3.05zm83.78-44.71a.23.22 6.4 0 0-.34.27q2.97 6.74.19 13.69a.86.86 0 0 0 0 .62l3.26 8.61a.34.34 0 0 0 .62.03c4.35-8.6 4.76-17.05-3.73-23.22zm94.58 5.48c4.2 10.79-2.59 18.28-9.37 27.17q-.52.67.28.38 5.36-1.95 11.01-2.09.52-.01.79-.46c5.19-8.65 6.69-18.87-2.3-25.32a.27.27 0 0 0-.41.32zm-175.44 24.55q-5.7-2.22-10.34-6.21-.46-.4-.74.15l-1.58 3.15q-.27.54.3.73l6.35 2.17q.59.2.93.72l.71 1.06a.73.72 51.2 0 0 1.1.12q1.24-1.16 3-.88a.53.52 60.1 0 0 .27-1.01zm40.5 12.5q2.79-9.15-1.74-17.48-.43-.78-.45.11-.12 4.28-.04 8.55c.05 2.97 1.24 5.77 1.55 8.75q.18 1.72.68.07zm90.63-13.51-6.82 7.35a.98.98 0 0 0-.24.86q.82 4.07-1.55 7.32-.35.49.08.92l6.17 6.17q.53.54.94-.1l6.58-10.49a1.01 1-32.4 0 0 .15-.65q-.84-6.2-4.37-11.31-.43-.62-.94-.07zm-13.84 12.4a.31.31 0 0 0-.01.51l3.08 2.18a.31.31 0 0 0 .48-.17l1.54-5.44a.31.31 0 0 0-.47-.34l-4.62 3.26zm-94.6 14.22-2.34-10.55a1.37 1.37 0 0 0-1.63-1.04l-1.14.25a6.3 5.17 77.5 0 0-3.68 7.27l.2.92a6.3 5.17 77.5 0 0 6.41 5.03l1.14-.25a1.37 1.37 0 0 0 1.04-1.63zm159.68 1.9a.82.82 0 0 1-1.39.85l-5.93-7.17q-.15-.19-.39-.17l-12.67 1.23q-.53.05-.4.58c2.62 10.46 12.59 16.27 22.86 16.68q.56.02.95-.37 5.25-5.3 1.87-11.96a1.16 1.12-3.4 0 0-.67-.57l-4.77-1.51a.28.28 0 0 0-.34.38l.88 2.03zm24.92 104.05c11.63-.39 21.32-7.98 23.11-19.26 2.99-18.75-21.02-25.78-14.41-45.06q.3-.88-.43-.29c-21.67 17.76 21.78 41.01-8.2 50.74-6.3 2.04-5.5 9.98-1.04 13.55q.43.34.97.32zm-71.63-26.04a.42.41-6.8 0 0 .4-.5c-1.74-7.42-6.63-12.86-12.6-20.51q-.4-.52-.85-.04l-2.37 2.55q-.41.44-.13.98l9.12 17.29q.19.36.59.35l5.84-.12zm-4.44 4.66q-.97 5.16 2.36 9.18.32.38.53-.07 2.36-4.99 2.39-10.57a.5.5 0 0 0-.63-.48l-3.81 1.03q-.71.19-.84.91zm29.73-.51c.08 11.29 8.3 19.28 18.98 21.25 3.42.64 5.34 1.41 7.14-1.87 4.67-8.5-1.32-9.91-7.15-12.87-2.08-1.05-4.59-3.3-7.39-3.95q-6.75-1.55-11.12-2.91-.47-.14-.46.35zm-41.83 18.86-1.34-9.34a2.37 2.37 0 0 0-2.69-2.01l-1.67.24a6.32 6.06 81.8 0 0-5.1 7.12l.22 1.52a6.32 6.06 81.8 0 0 6.9 5.39l1.67-.24a2.37 2.37 0 0 0 2.01-2.68zm12.32-5.31a.35.35 0 0 0 0-.51l-3.3-3.02a.35.35 0 0 0-.58.3l.7 5.52a.35.35 0 0 0 .59.21l2.59-2.5zm-10.13.29q.51 3.1-.83 5.98a.43.43 0 0 0 .57.57l2.99-1.42q.56-.26.38-.86-.78-2.61-1.57-5.22-.09-.32-.31-.46-.89-.62-1.23 1.34a.14.09 58.3 0 0 0 .07z"/><path d="M253.72 111.64c-5.36 8.52-6.36 18.73 6.33 20.89 9.03 1.54 6.13 18.27-1.94 17.61-20.05-1.64-31.81-20.74-20.32-38.34 7.1-10.88 15.6-16.99 9.88-31.12q-.32-.78.47-.46c13.86 5.79 11.83 21.48 5.58 31.42zm7.05 23.04c-6.44-1.25-13.58-5.59-13.1-12.71q.18-2.53 2.6-7.57c5.08-10.58 12.61-22.07.24-30.91a.29.29 0 0 0-.44.34c4.6 11.89-4.04 19.94-10.21 28.76-11.78 16.83.57 34.78 19.44 35.4q.51.02.91-.32c3.57-3.03 4.62-8.79 1.42-12.5a1.55 1.49-14.2 0 0-.86-.49zM284.88 106.22c-3.97-10.2-3.22-21.22 8.37-25.98a.2.2 0 0 1 .26.25q-3.87 11.18 1.56 19.69c3.16 4.95 9.27 11.39 11.35 17.34 5.7 16.36-5.45 30.71-22.02 32.44-9.44.99-10.54-11.42-5.65-16.88q.33-.36.81-.39c5.7-.31 13.17-4.72 12.18-11.46-.84-5.68-4.99-10.21-6.86-15.01zm5.69-22.58c-19.98 16.98 13.96 33.71-1.02 47.13q-2.76 2.48-7.46 3.62c-7.43 1.82-4.26 14.42 1.66 13.59 12.71-1.79 22.65-9.46 22.24-23.19-.49-16.2-21.12-23.06-14.82-40.74a.38.37-10.3 0 0-.6-.41z"/><path fill="#fff" d="M186.18 147.33q-4.87-5.28-1.54-11.7a1.4 1.38-83.7 0 1 .86-.7c7.99-2.2 14.95-6.02 12.98-15.15q-.41-1.94-3.86-8.57c-4.83-9.31-9.07-20.21 1.57-27.73q.53-.38.32.23c-5.46 15.61 8.44 22.02 13.15 34.41 6.07 15.96-6.71 29.64-22.53 29.63a1.29 1.27-20.9 0 1-.95-.42zM157.13 84.11c9.25 7.61 6.15 21.03-1.92 28.19-7.03 6.24-10.95 11.52-12.06 21.28q-.11.93-.45.06c-8.41-21.6 20.37-29.45 13.33-49.58a.31.31 0 0 1 .42-.39q.29.12.68.44zM247.67 121.97c-.48 7.12 6.66 11.46 13.1 12.71a1.55 1.49-14.2 0 1 .86.49c3.2 3.71 2.15 9.47-1.42 12.5q-.4.34-.91.32c-18.87-.62-31.22-18.57-19.44-35.4 6.17-8.82 14.81-16.87 10.21-28.76a.29.29 0 0 1 .44-.34c12.37 8.84 4.84 20.33-.24 30.91q-2.42 5.04-2.6 7.57zM289.55 130.77c14.98-13.42-18.96-30.15 1.02-47.13a.38.37-10.3 0 1 .6.41c-6.3 17.68 14.33 24.54 14.82 40.74.41 13.73-9.53 21.4-22.24 23.19-5.92.83-9.09-11.77-1.66-13.59q4.7-1.14 7.46-3.62z"/><path d="M330.38 140.24c-10.76-23.9 21.83-32.38 12.16-54.41a.49.48-87.2 0 1 .68-.62c5.43 3.06 10.31 8.11 9.95 14.64-.2 3.67-.27 7.17-1.75 10.6-4.28 9.87-14.53 23.28 3.59 27.09q3.87.81 4.76 5.24 1.58 7.91-4.49 12.17a1.47 1.44-60.7 0 1-.93.27q-17.55-.73-23.97-14.98zm14.6-51.07c5.33 13.7-7.5 21.48-12.54 32.22-7.55 16.06 4.62 30.59 20.83 31.61q1.59.1 2.81-1.7 3.82-5.64.47-10.97a1.22 1.2 78.7 0 0-.83-.56c-8.18-1.36-16.68-8.3-12.03-17.55 5.4-10.75 14.11-23.35 1.94-33.51a.41.41 0 0 0-.65.46zM378.37 109.02c-3.62-10.38-.6-18.7 8.97-23.85a.47.47 0 0 1 .65.61c-5.43 11.78 1.16 19.81 8.77 29.95 12.54 16.73 1.57 37.39-18.3 39.29-10.62 1.02-9.74-17.6-3.68-17.6 7.04.01 12.94-6.44 10.65-13.61-1.4-4.37-5.39-9.99-7.06-14.79zm6.73-20.65c-20.55 17.28 15.81 36.73-2.64 48.33-2.5 1.57-8.59 3.26-9.03 4.22q-3.3 7.25 2.39 11.85.38.31.87.28c20.16-1.1 30.51-20.33 17.89-37.13-6.96-9.26-13.22-16.54-8.96-27.18a.33.33 0 0 0-.52-.37z"/><path fill="#fff" d="M382.46 136.7c18.45-11.6-17.91-31.05 2.64-48.33a.33.33 0 0 1 .52.37c-4.26 10.64 2 17.92 8.96 27.18 12.62 16.8 2.27 36.03-17.89 37.13q-.49.03-.87-.28-5.69-4.6-2.39-11.85c.44-.96 6.53-2.65 9.03-4.22zM332.44 121.39c5.04-10.74 17.87-18.52 12.54-32.22a.41.41 0 0 1 .65-.46c12.17 10.16 3.46 22.76-1.94 33.51-4.65 9.25 3.85 16.19 12.03 17.55a1.22 1.2 78.7 0 1 .83.56q3.35 5.33-.47 10.97-1.22 1.8-2.81 1.7c-16.21-1.02-28.38-15.55-20.83-31.61zM298.54 253.25c5.42-2.57 9.03-10.97 12.24-16.02q.23-.37.65-.47l34.84-8a.95.95 0 0 1 1.16.82c.64 5.6-3.88 6.58-8.62 6.76q-11.05.41-21.14 5.12-.48.23-.57.74c-1.87 10.93-5.28 20.78-7.39 28.61q-.15.52.15.98c4.96 7.8 11.86 16.09 21.97 15.89 3.84-.07 7.99-.76 11.52.66 6.94 2.8 10.9 9.9 14.78 16.63q5.84 10.16 13.88 18.77c4.39 4.71-1.35 14.36-7.02 13.8-4.21-.42-10.88-5.75-15.29-7.99-5.37-2.72-12.12-3.14-17.64-5.62-15.95-7.14-10.31-30.29-27.61-32.4-6.22-.76-19.7 11.52-22.69 16.97q-.25.46.02.91 6.41 10.63 11.32 21.94c.6 1.38.69 3.71-.27 4.73a.89.89 0 0 1-1.41-.15c-5.22-8.64-10.47-18.25-18.42-24.19a1.57 1.56-57.8 0 1-.45-1.99l9.81-18.53q.07-.13-.08-.17c-13.95-3.12-27.58-9.36-35.16-22.14q-1.86-3.14-3.69-6.3-.26-.45-.77-.35-14.92 2.92-31.91 3.47c-8.86.3-11.03-12.55-12.07-19.3-.9-5.92-3.53-12.05-2.49-17.38q.1-.5-.38-.68c-6.46-2.44-12.83-1.15-19.36-2.63a.59.59 0 0 1-.34-.93c1.91-2.47 3.53-5.45 7.21-5.62q8.67-.38 16.97.12 1.01.06 1.02 1.07c.05 11.95 3.68 27.86 12.37 36.5q.37.37.77.02c6.46-5.56 14.44-9.53 20.01-15.87q.33-.38.15-.85-.97-2.61-1-4.11-.21-10.75-2.02-21.33-.62-3.66-.63-8.02c-.06-24.87-10.84-46.75-38.59-48.56-7.44-.48-15.68.23-23.47.34q-5.67.08-8.67-1.14c-11.82-4.81-12.89-22.88-7.48-32.86a.28.21 79.4 0 1 .37.33q-4.04 8.41-2.11 17.66c2.8 13.44 15.63 13.82 26.56 12.86 9.69-.85 19.74-1.17 30.2 1.57 25.13 6.57 30.82 32.45 38.42 57.85q1.01 3.4 4.84 8.1.31.38.77.24 11.93-3.74 23.8-7.48c19.74-6.23-9.52-32.45 3.66-33.75q9.46-.94 18.7-3.1.55-.13.9.3l4.47 5.55q.49.61-.29.6c-4.19-.07-19.29-1.62-17.2 7.78q.59 2.7 1.43 3.95 5.6 8.44 8.2 13.83c3.59 7.46-14.6 18.05-21.23 22.61q-.56.38.04.71c9.96 5.44 16.99 9.93 23.54 18.96q.28.39.72.18zm55.161 53.097a6.58 2.62 54.5 0 0-1.688-6.878 6.58 2.62 54.5 0 0-5.954-3.836 6.58 2.62 54.5 0 0 1.688 6.878 6.58 2.62 54.5 0 0 5.954 3.836zm-12.638 16.976a6.75 2.91 34.5 0 0-3.915-6.221 6.75 2.91 34.5 0 0-7.21-1.425 6.75 2.91 34.5 0 0 3.914 6.221 6.75 2.91 34.5 0 0 7.21 1.425zm29.838 6.326a2.12.64 74.1 0 0 .034-2.214 2.12.64 74.1 0 0-1.196-1.864 2.12.64 74.1 0 0-.034 2.214 2.12.64 74.1 0 0 1.196 1.864zm-8.451 3.721 3.72 1.83a.18.18 0 0 0 .24-.09l.02-.04a2.09 1.27 26.2 0 0-1.32-2.06l-.28-.14a2.09 1.27 26.2 0 0-2.44.21l-.02.05a.18.18 0 0 0 .08.24z"/><path fill="#fff" d="M168.08 136.58c2.07 3.37.67 8.54-2.06 10.99a1.36 1.36 0 0 1-1.01.35c-8.95-.57-8.15-10.02-7.7-16.19a.44.44 0 0 1 .66-.35c2.71 1.53 8.76 2.98 10.11 5.2zM194.52 211.85c-5.58-8.68-8.03-19.38 1.61-26.45q.72-.52.4.31c-3.44 8.98.44 16 6.02 22.72a2.33 2.33 0 0 1-1.79 3.82h-5.52a.85.85 0 0 1-.72-.4zM166.56 236.19q1.55.33 2.19 3.05 1.4 5.95-3.04 9.54-.39.31-.89.29c-18.98-.79-30.85-19.18-18.68-35.66 6.21-8.41 13.83-15.82 9.95-27.41q-.19-.58.31-.23 7.69 5.21 6.35 13.74c-.59 3.77-2.38 10.75-5.94 12.04a.54.54 0 0 0-.26.81l.46.67q.27.4.05.82l-2.13 3.96q-.29.54-.82.23l-2.96-1.76a.69.69 0 0 0-.89 1.03l3.11 3.9q.32.41.25.92c-1.12 8.14 5.98 12.55 12.94 14.06zM250.34 191.48c8.49 6.17 8.08 14.62 3.73 23.22a.34.34 0 0 1-.62-.03l-3.26-8.61a.86.86 0 0 1 0-.62q2.78-6.95-.19-13.69a.23.22 6.4 0 1 .34-.27z"/><path d="M374.19 262.05c-5.05-4.58-5.43-11.04-1.06-16.09a1.18 1.16 19 0 1 .84-.4c9.31-.37 14.63-7.73 10.15-16.46-6.76-13.16-13.43-26.44 3.15-35.95a.52.51 87.7 0 1 .72.67c-7.29 15.59 5.89 22.03 11.59 34.58 8.07 17.75-5 34.31-23.29 34.77q-.84.02-2.1-1.12zm1.5-1.27a1.29 1.27 64 0 0 .96.34c16.99-1.23 29.47-16.09 20.8-32.71-5.88-11.28-17.36-17.89-11.78-31.87a.22.22 0 0 0-.33-.26c-23.54 17.26 24.03 42.09-10.86 51.72a1.37 1.35 5.5 0 0-.85.69q-3.48 6.88 2.06 12.09z"/><path fill="#fff" d="M375.69 260.78q-5.54-5.21-2.06-12.09a1.37 1.35 5.5 0 1 .85-.69c34.89-9.63-12.68-34.46 10.86-51.72a.22.22 0 0 1 .33.26c-5.58 13.98 5.9 20.59 11.78 31.87 8.67 16.62-3.81 31.48-20.8 32.71a1.29 1.27 64 0 1-.96-.34zM335.55 224.13c6.78-8.89 13.57-16.38 9.37-27.17a.27.27 0 0 1 .41-.32c8.99 6.45 7.49 16.67 2.3 25.32q-.27.45-.79.46-5.65.14-11.01 2.09-.8.29-.28-.38z"/><path fill="#a9d18e" d="M169.48 221.51a.53.52 60.1 0 1-.27 1.01q-1.76-.28-3 .88a.73.72 51.2 0 1-1.1-.12l-.71-1.06q-.34-.52-.93-.72l-6.35-2.17q-.57-.19-.3-.73l1.58-3.15q.28-.55.74-.15 4.64 3.99 10.34 6.21z"/><path fill="#fff" d="M209.98 234.01q-.5 1.65-.68-.07c-.31-2.98-1.5-5.78-1.55-8.75q-.08-4.27.04-8.55.02-.89.45-.11 4.53 8.33 1.74 17.48zM300.61 220.5q.51-.55.94.07 3.53 5.11 4.37 11.31a1.01 1-32.4 0 1-.15.65l-6.58 10.49q-.41.64-.94.1l-6.17-6.17q-.43-.43-.08-.92 2.37-3.25 1.55-7.32a.98.98 0 0 1 .24-.86l6.82-7.35z"/><path fill="#a9d18e" d="m286.77 232.9 4.62-3.26a.31.31 0 0 1 .47.34l-1.54 5.44a.31.31 0 0 1-.48.17l-3.08-2.18a.31.31 0 0 1 .01-.51z"/><path fill="#fff" d="M192.17 247.12a1.37 1.37 0 0 1-1.04 1.63l-1.14.25a6.3 5.17 77.5 0 1-6.41-5.03l-.2-.92a6.3 5.17 77.5 0 1 3.68-7.27l1.14-.25a1.37 1.37 0 0 1 1.63 1.04l2.34 10.55zM351.85 249.02l-.88-2.03a.28.28 0 0 1 .34-.38l4.77 1.51a1.16 1.12-3.4 0 1 .67.57q3.38 6.66-1.87 11.96-.39.39-.95.37c-10.27-.41-20.24-6.22-22.86-16.68q-.13-.53.4-.58l12.67-1.23q.24-.02.39.17l5.93 7.17a.82.82 0 0 0 1.39-.85z"/><path d="M143.9 342.68c-9.69-12.86-2.83-25.45 6.22-36.58q8.25-10.15 3.39-22.57a.26.26 0 0 1 .35-.33c6.99 3.16 10.86 8.88 10.37 16.77q-.45 7.13-3.5 12.46c-2.59 4.51-5.63 9.34-5.1 14.17.62 5.71 6.36 8.7 11.75 9.14a1.48 1.45-19.5 0 1 .96.45c3.38 3.45 3.84 10.07.7 14.02-1.41 1.77-2.11 3-4.28 2.94-8.48-.22-15.75-3.68-20.86-10.47zm-1.69-20.2c-4.18 16.14 7.21 27.65 22.65 28.63q.5.03.86-.31 5.56-5.16 2.14-12.11-.22-.44-.68-.58c-34.82-10.7 10.98-31.87-10.5-51.57a.44.44 0 0 0-.71.48c5.92 16.03-10.39 22.43-13.76 35.46zM184.45 351.3q-6.49-7.37-.36-15.3.3-.39.79-.41c7.26-.27 14.25-5.98 11.55-13.79-1.85-5.35-6.29-11-7.95-18.02-2.15-9.07 1.54-16.28 9.91-20.59a.4.4 0 0 1 .55.52c-7.39 17.33 8.25 23.78 12.85 37.49 5.72 17.01-7.64 31.35-24.47 31.98q-1.18.04-2.87-1.88zm3.81-.29c18.29-1.44 29.95-19.13 18.54-35.32-6.39-9.09-14.53-16.57-10.35-28.95q.24-.7-.35-.25c-8.73 6.7-7.52 14.69-3.42 23.39 2.23 4.74 6.23 11.07 6.2 15.77-.05 6.9-6.84 10.94-13.11 12.09a1.22 1.22 0 0 0-.8.52c-2.36 3.55-2.48 9.83 1.72 12.45q.6.37 1.57.3zM256.94 354.98c-19.28-2.17-30.11-20.7-19.44-37.74 6.9-11.03 16.11-17.27 10.13-31.49a.39.39 0 0 1 .51-.51q6.67 2.89 9.36 9.14c1.92 4.47.92 12.73-1.25 17.21-4.57 9.4-13.33 22.6 3.92 25.96 3.3.64 4.39 2.15 5.06 5.21 1.31 5.92-1.3 13.01-8.29 12.22zm-.25-2.17q1.38.2 2.21.43a1.03 1.02 31.7 0 0 .94-.22q5.8-5.12 2.46-12.22a1.21 1.18 85 0 0-.73-.63c-35.63-11.02 11.78-32.5-10.87-51.7a.38.38 0 0 0-.6.43c7.51 19.29-19.7 26.99-14.02 47.52 2.7 9.78 10.82 14.99 20.61 16.39z"/><path fill="#fff" d="M186.69 350.71c-4.2-2.62-4.08-8.9-1.72-12.45a1.22 1.22 0 0 1 .8-.52c6.27-1.15 13.06-5.19 13.11-12.09.03-4.7-3.97-11.03-6.2-15.77-4.1-8.7-5.31-16.69 3.42-23.39q.59-.45.35.25c-4.18 12.38 3.96 19.86 10.35 28.95 11.41 16.19-.25 33.88-18.54 35.32q-.97.07-1.57-.3zM164.86 351.11c-15.44-.98-26.83-12.49-22.65-28.63 3.37-13.03 19.68-19.43 13.76-35.46a.44.44 0 0 1 .71-.48c21.48 19.7-24.32 40.87 10.5 51.57q.46.14.68.58 3.42 6.95-2.14 12.11-.36.34-.86.31zM375.8 352.75c-4.46-3.57-5.26-11.51 1.04-13.55 29.98-9.73-13.47-32.98 8.2-50.74q.73-.59.43.29c-6.61 19.28 17.4 26.31 14.41 45.06-1.79 11.28-11.48 18.87-23.11 19.26q-.54.02-.97-.32zM256.69 352.81c-9.79-1.4-17.91-6.61-20.61-16.39-5.68-20.53 21.53-28.23 14.02-47.52a.38.38 0 0 1 .6-.43c22.65 19.2-24.76 40.68 10.87 51.7a1.21 1.18 85 0 1 .73.63q3.34 7.1-2.46 12.22a1.03 1.02 31.7 0 1-.94.22q-.83-.23-2.21-.43z"/><ellipse fill="#151515" transform="rotate(54.5 -117.264 490.162)" rx="6.58" ry="2.62"/><path fill="#fff" d="m305.14 327.03-5.84.12q-.4.01-.59-.35l-9.12-17.29q-.28-.54.13-.98l2.37-2.55q.45-.48.85.04c5.97 7.65 10.86 13.09 12.6 20.51a.42.41-6.8 0 1-.4.5z"/><ellipse fill="#151515" transform="rotate(34.5 -346.73 699.993)" rx="6.75" ry="2.91"/><ellipse fill="#222" transform="rotate(74.1 -31.822 409.075)" rx="2.12" ry=".64"/><path fill="#fff" d="m301.54 330.78 3.81-1.03a.5.5 0 0 1 .63.48q-.03 5.58-2.39 10.57-.21.45-.53.07-3.33-4.02-2.36-9.18.13-.72.84-.91zM349.41 352.43c-10.68-1.97-18.9-9.96-18.98-21.25q-.01-.49.46-.35 4.37 1.36 11.12 2.91c2.8.65 5.31 2.9 7.39 3.95 5.83 2.96 11.82 4.37 7.15 12.87-1.8 3.28-3.72 2.51-7.14 1.87z"/><path fill="#151515" d="M362.45 333.37a.18.18 0 0 1-.08-.24l.02-.05a2.09 1.27 26.2 0 1 2.44-.21l.28.14a2.09 1.27 26.2 0 1 1.32 2.06l-.02.04a.18.18 0 0 1-.24.09l-3.72-1.83z"/><path fill="#fff" d="M288.6 350.04a2.37 2.37 0 0 1-2.01 2.68l-1.67.24a6.32 6.06 81.8 0 1-6.9-5.39l-.22-1.52a6.32 6.06 81.8 0 1 5.1-7.12l1.67-.24a2.37 2.37 0 0 1 2.69 2.01l1.34 9.34zM300.92 344.73l-2.59 2.5a.35.35 0 0 1-.59-.21l-.7-5.52a.35.35 0 0 1 .58-.3l3.3 3.02a.35.35 0 0 1 0 .51zM290.79 345.02a.14.09 58.3 0 1 0-.07q.34-1.96 1.23-1.34.22.14.31.46.79 2.61 1.57 5.22.18.6-.38.86l-2.99 1.42a.43.43 0 0 1-.57-.57q1.34-2.88.83-5.98z"/><path d="M258.06 427.31c-7.55-1.24-13.78-2.98-18.76-8.61q-10.52-11.89-2.97-26.88c5.67-11.28 17.71-16.95 11.41-33.12q-.28-.72.44-.42c4.42 1.87 9.7 6.84 10.27 12.16.5 4.64-.63 11.34-2.77 15.23-2.75 5.02-6.56 10.27-5.72 15.55 1.55 9.78 11.93 6.03 14.33 11.64q3.69 8.64-3.53 14.1-.87.65-2.7.35zm-3.61-2.85c3.77.78 5.56 1.74 7.58-1.92q2.83-5.13.14-9.6a1.35 1.35 0 0 0-.8-.6c-35.6-9.93 12.88-34.18-10.85-50.85a.29.29 0 0 0-.44.34c5.5 14.66-7.65 21.05-12.69 32.49-6.36 14.47 2.61 27.15 17.06 30.14zM278.84 425.39q-6.45-7.33-.18-15.13a1.01.99 18.4 0 1 .76-.37q7.85-.24 11.49-6.45c2.55-4.34-1.24-11.06-4.09-15.51-6.71-10.46-6.27-24.05 6.32-29.61a.42.42 0 0 1 .55.56c-5.66 12.23 1.76 19.34 8.49 28.79 4.28 6.02 6.01 10.28 5.74 17.18-.51 12.99-12.38 21.29-24.7 22.28q-2.66.22-4.38-1.74zm3.48-.2c8.84-.46 17.77-4.84 21.78-13.1 3.95-8.13 1.69-15.63-3.16-22.91-6.21-9.31-13.55-14.37-9.99-27.17q.22-.8-.43-.29c-12.11 9.57-3.94 21.91 1.53 32.23 4.97 9.37-2.35 16.36-11.24 17.96a1.56 1.56 0 0 0-.83.42c-3.73 3.6-2.33 9.64 1.37 12.56q.42.33.97.3z"/><path fill="#222" d="M439.73 373.86a.39.39 0 0 0-.56-.44c-16.66 9.12-33.19 18.82-50.79 25.96q-.69.28-.72-.47l-.22-5.31q-.03-.61.53-.85 21.53-9.07 41.7-20.85c5.05-2.95 11.26-8.14 18.73-12.12a.86.85-5.3 0 1 1.22 1.01q-4.74 14.84-7.96 30.14c-.8 3.78-.6 5.18 2.02 8.2q8 9.21 16.97 17.46a.37.37 0 0 1-.09.6q-10.92 5.37-21.79 11.08-3.12 1.64-7.23 1.98a.85.85 0 0 1-.81-.45q-1.33-2.47-.82-5.24.11-.61.68-.85l20.05-8.44a.2.2 0 0 0 .06-.34c-3.51-3.23-16.92-15.46-15.97-20.17q2.15-10.65 5-20.9zM99.46 375.37l4.88 22.7q.12.58-.27 1.03l-15.22 17.32q-.41.46.16.68 9.74 3.77 18.92 8.78.55.29.46.91l-.69 4.67a.74.74 0 0 1-1.05.56l-23.97-11.4q-.43-.2-.43-.68v-4.92a1.17 1.14 67.1 0 1 .31-.79q6.48-6.89 12.66-14c2.2-2.54 2.56-3.2 1.97-6.76q-2.63-15.62-7.42-30.59-.74-2.31 1.23-.89c17.87 12.89 36.37 21.52 59.1 31.42q.47.2.45.71l-.18 5.59q-.01.51-.5.33-26.16-10.07-49.81-25.09-.8-.51-.6.42z"/><path fill="#fff" d="M254.45 424.46c-14.45-2.99-23.42-15.67-17.06-30.14 5.04-11.44 18.19-17.83 12.69-32.49a.29.29 0 0 1 .44-.34c23.73 16.67-24.75 40.92 10.85 50.85a1.35 1.35 0 0 1 .8.6q2.69 4.47-.14 9.6c-2.02 3.66-3.81 2.7-7.58 1.92zM281.35 424.89c-3.7-2.92-5.1-8.96-1.37-12.56a1.56 1.56 0 0 1 .83-.42c8.89-1.6 16.21-8.59 11.24-17.96-5.47-10.32-13.64-22.66-1.53-32.23q.65-.51.43.29c-3.56 12.8 3.78 17.86 9.99 27.17 4.85 7.28 7.11 14.78 3.16 22.91-4.01 8.26-12.94 12.64-21.78 13.1q-.55.03-.97-.3z"/><path fill="#222" d="M202.75 424.47q11.75 3 23.8 3.16.68.05 1.83.53.95.39 1.8.47 41.27 4.1 82.51-.26c1.76-.19 3.26-.82 4.81-1.55q-.11.64.24.6 12.56-1.34 25.05-4.83 30.06-8.12 59.05-19.98 10.08-4.13 19.33-9.95.54-.33.57.3c.94 17.71 4.21 33.07 7.11 49.59.47 2.7 1.44 5.36 2.31 8.06q.16.52-.36.67c-12.5 3.52-25.44 10.12-35.43 13.75-55.67 20.24-115.92 25.31-174.62 18.43q-57.19-6.71-107.21-29.09c-1.58-.71-4.09-1.11-5.93-1.85q-.5-.2-.34-.71 9.03-28.15 9.57-57.76 0-.38.34-.19 39.98 22.97 85.57 30.61zm27.93 53.85c65.67 5.89 128.88-3.54 188.32-30.07q1.75-.79 3.49-.76a.57.56 80.9 0 0 .54-.75c-4.63-13.74-6.28-29.5-7.05-43.85q-.04-.71-.65-.35c-29.58 17.31-63.52 26.51-97.33 30.69-64.41 7.98-137.83 2.39-195.55-29.72q-.44-.24-.44.26.01 22.57-6.91 44.02-.17.51.34.69c6.36 2.24 13.65 5.79 18.54 7.72 31.27 12.33 63.27 19.12 96.7 22.12z"/><path fill="#fff" d="M419 448.25c-59.44 26.53-122.65 35.96-188.32 30.07-33.43-3-65.43-9.79-96.7-22.12-4.89-1.93-12.18-5.48-18.54-7.72q-.51-.18-.34-.69 6.92-21.45 6.91-44.02 0-.5.44-.26c57.72 32.11 131.14 37.7 195.55 29.72 33.81-4.18 67.75-13.38 97.33-30.69q.61-.36.65.35c.77 14.35 2.42 30.11 7.05 43.85a.57.56 80.9 0 1-.54.75q-1.74-.03-3.49.76zm-286.69-6.43a1.01 1.01 0 0 1-.9-1.25l5.04-20.34a.74.73-70 0 0-.38-.82l-3.49-1.75q-.4-.2-.51.24l-6.01 24.91q-.09.37.28.42c4.31.6 8.12 2.71 12.1 4.43q.48.2.79-.22l2.99-4.1a.54.54 0 0 0-.4-.85l-9.51-.67zm264.61-17.71c2.02-5.12 8.44-.72 11.19 1.12a.43.43 0 0 0 .64-.52l-2.78-6.44q-.22-.53-.79-.42c-6.1 1.19-12.69 1.7-13.35 8.86-.85 9.19 15.15 4.5 16.6 12.27 1.35 7.26-10.12 2.86-12.66 1.32a.56.56 0 0 0-.79.73l3.03 6.01a.94.93 72.8 0 0 .96.51c4.44-.58 11.25-2.23 13.22-6.63q2.03-4.55-.77-7.91c-3.69-4.42-12.64-2.76-14.51-7.87q-.19-.52.01-1.03zm-251.15 20.62c-1.45 8.32 9.48 12.19 14.65 8.43 5.21-3.78 7.79-14.39 8.97-20.96q.09-.46-.36-.59l-2.99-.89a.57.57 0 0 0-.73.49c-.48 5.14-2.95 26.12-13.27 18.39q-.37-.28-.52-.72c-1.86-5.54 1.76-15.45 3.96-21.17a.59.58-70.7 0 0-.36-.76l-3.85-1.23q-.48-.15-.64.32-3.2 9.19-4.86 18.69zm238.27-.31 4.34 6.71a.67.66 63.2 0 0 .78.26l4.54-1.71q.42-.16.15-.52l-16.31-21.03a.74.73-29.8 0 0-.86-.23l-2.94 1.18q-.6.24-.63.88-.56 13.61-3.86 26.82a.37.37 0 0 0 .48.44l3.86-1.29q.44-.14.49-.61l.86-8.23a.93.93 0 0 1 .66-.8l7.55-2.2a.81.8-24.3 0 1 .89.33zm-26.16-6.96q4.48-.05 8.37 2.2a.34.33-88.4 0 0 .46-.44l-2.84-5.93a.54.54 0 0 0-.7-.27q-8.67 3.61-18.06 4.06a.7.69 1.9 0 0-.67.62l-.56 5.63a.59.59 0 0 0 1.04.43q2.74-3.35 6.92-4.6.7-.21.86.5l4.88 20.61a.67.66 75.7 0 0 .82.49l4.3-1.16q.31-.09.23-.4l-5.58-21.05a.55.55 0 0 1 .53-.69zm-175.14 5.63-1.87-7.93q-.09-.38-.47-.48l-5.28-1.46a.5.5 0 0 0-.6.65l4.57 12.44a.74.74 0 0 1-.26.86l-11.47 8.32q-.64.46.1.72l4.32 1.45a.8.8 0 0 0 .9-.28c1.47-1.97 4.1-6.26 6.46-6.96a.87.87 0 0 1 .92.27c1.8 2.12 2.5 7.29 3.12 10.08q.1.44.54.52l5.06.9q.75.13.5-.59l-5.12-14.91q-.25-.72.38-1.15l9.79-6.83a.37.37 0 0 0-.12-.66l-3.51-.91a.99.97-60 0 0-.94.26l-5.89 6a.67.67 0 0 1-1.13-.31zm157.135-4.534a.27.27 0 0 0-.309-.225l-5.078.795a.27.27 0 0 0-.225.308l3.982 25.43a.27.27 0 0 0 .309.225l5.078-.795a.27.27 0 0 0 .225-.308l-3.982-25.43zM212.74 443.54q5.72 1.13 9.87 5.13.63.61.45-.25l-1.11-5.37q-.14-.66-.81-.77l-12.87-2.14q-.4-.07-.48.33l-4.64 24.44q-.06.31.26.35l17.04 2.09q.68.08.98-.53l1.89-3.79q.44-.89-.51-.6-6.3 1.91-12.88 1.21a.59.59 0 0 1-.52-.69l1.34-7.76a1.02 1.02 0 0 1 1.35-.78l5 1.81q.44.15.4-.31l-.33-3.48q-.06-.67-.74-.68l-5.07-.01a.58.58 0 0 1-.57-.68l1.17-6.98a.66.65-79.5 0 1 .78-.54zm106.36 13.13q5.16 9.3 15.66 10.73a1.03 1.02-24.9 0 0 .69-1.88q-7.5-4.77-12.74-11.95a.75.74 44.7 0 1-.01-.86c10.82-15.58-7.38-11.4-14.29-9.18q-.51.17-.43.69 1.86 11.87 1.65 23.92-.01.65.64.56l4.45-.67q.64-.1.58-.75l-1.02-10.05q-.06-.61.55-.67l3.45-.33q.55-.05.82.44zm-77.85-9.44c2.55.21 5.5 2.98 7.5 4.54q.54.41.44-.26l-1.01-6.36q-.09-.57-.67-.54-9.16.61-17.99-1.8-.53-.15-.88.28-2 2.48-2.44 5.64a.46.46 0 0 0 .73.44q3.47-2.47 7.79-2.4 1.05.01.95 1.06l-1.98 21.24q-.03.39.36.4l4.69.11q.34.01.36-.33l1.45-21.42q.04-.65.7-.6zm51.5 10.8 7.01.58q.72.06.57-.64l-.86-3.98a.42.42 0 0 0-.5-.32l-6.1 1.45q-.74.18-.79-.59l-.36-6.74q-.02-.42.39-.45 5.94-.47 10.7 2.93.67.48.44-.31l-1.37-4.7a2.21 2.21 0 0 0-2.36-1.57l-12.51 1.33q-.42.04-.4.47l.78 24.81q.01.46.47.42l15.84-1.18q.56-.04.82-.55l1.8-3.67a.42.42 0 0 0-.49-.59q-4.55 1.23-9.13 2.3c-5.73 1.34-4.54-5.32-4.42-8.59q.02-.45.47-.41zm-19.53 4.18a.48.48 0 0 1-.88.09q-4.46-8.07-7.22-16.87-.11-.36-.49-.36l-4.67.07a.47.46-11.5 0 0-.43.64l10.44 25.44q.82 1.99 2.4.52 1.32-1.23 2.25-4.04 3.62-11 8.54-21.54.36-.76-.48-.72l-4.04.2q-.56.02-.72.56l-4.7 16.01z"/><path fill="#222" d="m132.31 441.82 9.51.67a.54.54 0 0 1 .4.85l-2.99 4.1q-.31.42-.79.22c-3.98-1.72-7.79-3.83-12.1-4.43q-.37-.05-.28-.42l6.01-24.91q.11-.44.51-.24l3.49 1.75a.74.73-70 0 1 .38.82l-5.04 20.34a1.01 1.01 0 0 0 .9 1.25zM396.91 425.14c1.87 5.11 10.82 3.45 14.51 7.87q2.8 3.36.77 7.91c-1.97 4.4-8.78 6.05-13.22 6.63a.94.93 72.8 0 1-.96-.51l-3.03-6.01a.56.56 0 0 1 .79-.73c2.54 1.54 14.01 5.94 12.66-1.32-1.45-7.77-17.45-3.08-16.6-12.27.66-7.16 7.25-7.67 13.35-8.86q.57-.11.79.42l2.78 6.44a.43.43 0 0 1-.64.52c-2.75-1.84-9.17-6.24-11.19-1.12q-.2.51-.01 1.03zM160.42 453.16c-5.17 3.76-16.1-.11-14.65-8.43q1.66-9.5 4.86-18.69.16-.47.64-.32l3.85 1.23a.59.58-70.7 0 1 .36.76c-2.2 5.72-5.82 15.63-3.96 21.17q.15.44.52.72c10.32 7.73 12.79-13.25 13.27-18.39a.57.57 0 0 1 .73-.49l2.99.89q.45.13.36.59c-1.18 6.57-3.76 17.18-8.97 20.96zM383.15 444.09l-7.55 2.2a.93.93 0 0 0-.66.8l-.86 8.23q-.05.47-.49.61l-3.86 1.29a.37.37 0 0 1-.48-.44q3.3-13.21 3.86-26.82.03-.64.63-.88l2.94-1.18a.74.73-29.8 0 1 .86.23l16.31 21.03q.27.36-.15.52l-4.54 1.71a.67.66 63.2 0 1-.78-.26l-4.34-6.71a.81.8-24.3 0 0-.89-.33zm-7.34-2.01a.36.36 0 0 0 .45.38l4.91-1.29a.36.36 0 0 0 .2-.55l-4.26-6.26a.36.36 0 0 0-.66.17l-.64 7.55zM357.35 438.15l5.58 21.05q.08.31-.23.4l-4.3 1.16a.67.66 75.7 0 1-.82-.49l-4.88-20.61q-.16-.71-.86-.5-4.18 1.25-6.92 4.6a.59.59 0 0 1-1.04-.43l.56-5.63a.7.69 1.9 0 1 .67-.62q9.39-.45 18.06-4.06a.54.54 0 0 1 .7.27l2.84 5.93a.34.33-88.4 0 1-.46.44q-3.89-2.25-8.37-2.2a.55.55 0 0 0-.53.69zM182.74 443.09a.67.67 0 0 0 1.13.31l5.89-6a.99.97-60 0 1 .94-.26l3.51.91a.37.37 0 0 1 .12.66l-9.79 6.83q-.63.43-.38 1.15l5.12 14.91q.25.72-.5.59l-5.06-.9q-.44-.08-.54-.52c-.62-2.79-1.32-7.96-3.12-10.08a.87.87 0 0 0-.92-.27c-2.36.7-4.99 4.99-6.46 6.96a.8.8 0 0 1-.9.28l-4.32-1.45q-.74-.26-.1-.72l11.47-8.32a.74.74 0 0 0 .26-.86l-4.57-12.44a.5.5 0 0 1 .6-.65l5.28 1.46q.38.1.47.48l1.87 7.93z"/><path fill="#fff" d="m375.81 442.08.64-7.55a.36.36 0 0 1 .66-.17l4.26 6.26a.36.36 0 0 1-.2.55l-4.91 1.29a.36.36 0 0 1-.45-.38z"/><rect fill="#222" x="-2.84" y="-13.14" transform="rotate(-8.9 3071.667 -1952.53)" width="5.68" height="26.28" rx=".27"/><path fill="#222" d="m211.96 444.08-1.17 6.98a.58.58 0 0 0 .57.68l5.07.01q.68.01.74.68l.33 3.48q.04.46-.4.31l-5-1.81a1.02 1.02 0 0 0-1.35.78l-1.34 7.76a.59.59 0 0 0 .52.69q6.58.7 12.88-1.21.95-.29.51.6l-1.89 3.79q-.3.61-.98.53l-17.04-2.09q-.32-.04-.26-.35l4.64-24.44q.08-.4.48-.33l12.87 2.14q.67.11.81.77l1.11 5.37q.18.86-.45.25-4.15-4-9.87-5.13a.66.65-79.5 0 0-.78.54zM318.28 456.23l-3.45.33q-.61.06-.55.67l1.02 10.05q.06.65-.58.75l-4.45.67q-.65.09-.64-.56.21-12.05-1.65-23.92-.08-.52.43-.69c6.91-2.22 25.11-6.4 14.29 9.18a.75.74 44.7 0 0 .01.86q5.24 7.18 12.74 11.95a1.03 1.02-24.9 0 1-.69 1.88q-10.5-1.43-15.66-10.73-.27-.49-.82-.44zm-3.53-2.27c6.78-1.97 9.07-12.14-.92-9.08q-.48.15-.44.66l.63 7.91q.06.71.73.51zM240.55 447.83l-1.45 21.42q-.02.34-.36.33l-4.69-.11q-.39-.01-.36-.4l1.98-21.24q.1-1.05-.95-1.06-4.32-.07-7.79 2.4a.46.46 0 0 1-.73-.44q.44-3.16 2.44-5.64.35-.43.88-.28 8.83 2.41 17.99 1.8.58-.03.67.54l1.01 6.36q.1.67-.44.26c-2-1.56-4.95-4.33-7.5-4.54q-.66-.05-.7.6zM292.28 458.44c-.12 3.27-1.31 9.93 4.42 8.59q4.58-1.07 9.13-2.3a.42.42 0 0 1 .49.59l-1.8 3.67q-.26.51-.82.55l-15.84 1.18q-.46.04-.47-.42l-.78-24.81q-.02-.43.4-.47l12.51-1.33a2.21 2.21 0 0 1 2.36 1.57l1.37 4.7q.23.79-.44.31-4.76-3.4-10.7-2.93-.41.03-.39.45l.36 6.74q.05.77.79.59l6.1-1.45a.42.42 0 0 1 .5.32l.86 3.98q.15.7-.57.64l-7.01-.58q-.45-.04-.47.41z"/><path fill="#fff" d="M313.83 444.88c9.99-3.06 7.7 7.11.92 9.08q-.67.2-.73-.51l-.63-7.91q-.04-.51.44-.66z"/><path fill="#222" d="m273.22 462.21 4.7-16.01q.16-.54.72-.56l4.04-.2q.84-.04.48.72-4.92 10.54-8.54 21.54-.93 2.81-2.25 4.04-1.58 1.47-2.4-.52l-10.44-25.44a.47.46-11.5 0 1 .43-.64l4.67-.07q.38 0 .49.36 2.76 8.8 7.22 16.87a.48.48 0 0 0 .88-.09z"/></svg>